<svg width="598" height="485" viewBox="0 0 598 485" fill="none" xmlns="http://www.w3.org/2000/svg">
<path d="M581.825 316.02C561.746 367.342 524.127 405.01 468.967 429.024C413.807 453.039 355.07 470.372 292.755 481.024C230.441 491.675 171.819 480.927 116.89 448.778C61.9608 416.63 26.0723 373.636 9.22427 319.797C-7.62372 265.957 -1.39227 215.992 27.9186 169.899C57.2295 123.807 93.2334 81.2968 135.93 42.3699C178.627 3.44299 230.095 -8.66114 290.332 6.05749C350.569 20.7761 410.576 36.7536 470.351 53.9899C530.127 71.2262 568.67 106.377 585.979 159.441C603.289 212.506 601.904 264.699 581.825 316.02Z" fill="black"/>
<path d="M581.825 316.02C561.746 367.342 524.127 405.01 468.967 429.024C413.807 453.039 355.07 470.372 292.755 481.024C230.441 491.675 171.819 480.927 116.89 448.778C61.9608 416.63 26.0723 373.636 9.22427 319.797C-7.62372 265.957 -1.39227 215.992 27.9186 169.899C57.2295 123.807 93.2334 81.2968 135.93 42.3699C178.627 3.44299 230.095 -8.66114 290.332 6.05749C350.569 20.7761 410.576 36.7536 470.351 53.9899C530.127 71.2262 568.67 106.377 585.979 159.441C603.289 212.506 601.904 264.699 581.825 316.02Z" fill="#ECB580"/>
</svg>
